####
#
# OBJ File Generated by Meshlab
#
####
# Object CollisionTable.obj
#
# Vertices: 36
# Faces: 76
#
####
vn 2.746802 3.020763 0.604153
v 25.400000 25.400000 44.450043
vn 1.965587 1.449967 2.174950
v 25.400000 33.337502 25.400043
vn 1.570796 4.712389 1.570796
v 25.400000 171.450012 25.400043
vn 2.746802 3.020764 -0.604152
v 25.400000 25.400000 685.799988
vn 1.570796 4.712389 -1.570796
v 25.400000 25.400000 457.200012
vn 4.712389 -1.570796 -1.570796
v 25.400000 76.199997 457.200012
vn 1.570796 4.712389 1.570796
v 25.400000 25.400000 273.050018
vn 4.712389 -1.570796 1.570796
v 25.400000 76.199997 273.050018
vn 1.570796 4.712389 -1.570797
v 25.400000 171.450012 704.850037
vn 1.965587 1.449966 -2.174948
v 25.400000 33.337502 704.850037
vn -2.746802 3.020764 -0.604151
v 1193.800049 25.400000 685.799988
vn -1.965587 1.449968 -2.174949
v 1193.800049 33.337502 704.850037
vn -1.570796 4.712389 -1.570796
v 1193.800049 171.450012 704.850037
vn -2.746801 3.020764 0.604153
v 1193.800049 25.400000 44.450043
vn -1.570796 4.712389 1.570796
v 1193.800049 25.400000 273.050018
vn -4.712389 -1.570796 1.570796
v 1193.800049 76.199997 273.050018
vn -1.570796 4.712389 -1.570796
v 1193.800049 25.400000 457.200012
vn -4.712389 -1.570796 -1.570796
v 1193.800049 76.199997 457.200012
vn -1.570797 4.712389 1.570797
v 1193.800049 171.450012 25.400043
vn -1.965587 1.449966 2.174949
v 1193.800049 33.337502 25.400043
vn 4.712389 1.570796 -1.570796
v 1219.199951 25.400000 457.200012
vn 4.712389 1.570796 1.570796
v 1219.199951 25.400000 273.050018
vn -4.712389 1.570796 1.570796
v 0.000000 25.400000 273.050018
vn -4.712389 1.570796 -1.570796
v 0.000000 25.400000 457.200012
vn 1.570795 1.570796 -1.570796
v 1219.199951 171.450012 0.000000
vn -1.570797 1.570797 -1.570797
v 0.000000 171.450012 0.000000
vn -1.570796 1.570796 1.570796
v 0.000000 171.450012 730.250000
vn 1.570796 1.570797 1.570797
v 1219.199951 171.450012 730.250000
vn -4.712389 -1.570796 1.570796
v 0.000000 76.199997 273.050018
vn -1.570793 -1.570796 -1.570796
v 0.000000 0.000000 0.000000
vn -1.570795 -1.570796 1.570797
v 0.000000 0.000000 730.250000
vn -4.712389 -1.570796 -1.570796
v 0.000000 76.199997 457.200012
vn 1.570796 -1.570796 1.570796
v 1219.199951 0.000000 730.250000
vn 4.712389 -1.570796 -1.570796
v 1219.199951 76.199997 457.200012
vn 1.570796 -1.570796 -1.570797
v 1219.199951 0.000000 0.000000
vn 4.712389 -1.570796 1.570796
v 1219.199951 76.199997 273.050018
# 36 vertices, 0 vertices normals

f 1//1 2//2 3//3
f 4//4 5//5 6//6
f 7//7 1//1 8//8
f 8//8 1//1 3//3
f 8//8 3//3 6//6
f 6//6 3//3 9//9
f 6//6 9//9 4//4
f 4//4 9//9 10//10
f 11//11 12//12 13//13
f 14//14 15//15 16//16
f 17//17 11//11 18//18
f 18//18 11//11 13//13
f 18//18 13//13 16//16
f 16//16 13//13 19//19
f 16//16 19//19 14//14
f 14//14 19//19 20//20
f 15//15 14//14 1//1
f 5//5 4//4 11//11
f 17//17 21//21 22//22
f 7//7 23//23 24//24
f 24//24 5//5 7//7
f 7//7 5//5 11//11
f 7//7 11//11 1//1
f 1//1 11//11 17//17
f 1//1 17//17 15//15
f 15//15 17//17 22//22
f 20//20 19//19 2//2
f 2//2 19//19 3//3
f 10//10 9//9 12//12
f 12//12 9//9 13//13
f 19//19 25//25 3//3
f 3//3 25//25 26//26
f 3//3 26//26 9//9
f 9//9 26//26 27//27
f 9//9 27//27 13//13
f 13//13 27//27 28//28
f 13//13 28//28 19//19
f 19//19 28//28 25//25
f 29//29 26//26 23//23
f 23//23 26//26 30//30
f 23//23 30//30 24//24
f 24//24 30//30 31//31
f 24//24 31//31 32//32
f 32//32 31//31 27//27
f 32//32 27//27 29//29
f 29//29 27//27 26//26
f 33//33 28//28 31//31
f 31//31 28//28 27//27
f 34//34 28//28 21//21
f 21//21 28//28 33//33
f 21//21 33//33 22//22
f 22//22 33//33 35//35
f 22//22 35//35 36//36
f 36//36 35//35 25//25
f 36//36 25//25 34//34
f 34//34 25//25 28//28
f 30//30 26//26 35//35
f 35//35 26//26 25//25
f 35//35 33//33 30//30
f 30//30 33//33 31//31
f 22//22 36//36 15//15
f 15//15 36//36 16//16
f 36//36 34//34 16//16
f 16//16 34//34 18//18
f 34//34 21//21 18//18
f 18//18 21//21 17//17
f 32//32 29//29 6//6
f 6//6 29//29 8//8
f 24//24 32//32 5//5
f 5//5 32//32 6//6
f 29//29 23//23 8//8
f 8//8 23//23 7//7
f 11//11 4//4 12//12
f 12//12 4//4 10//10
f 20//20 2//2 14//14
f 14//14 2//2 1//1
# 76 faces, 0 coords texture

# End of File
